<?xml version="1.0" encoding="iso-8859-1"?>
<!-- Generator: Adobe Illustrator 21.1.0, SVG Export Plug-In . SVG Version: 6.00 Build 0)  -->
<svg version="1.1" id="Layer_1" xmlns="http://www.w3.org/2000/svg" xmlns:xlink="http://www.w3.org/1999/xlink" x="0px" y="0px"
	 viewBox="0 0 50.993 46.403" style="enable-background:new 0 0 50.993 46.403;" xml:space="preserve">
<style type="text/css">
	.st0{fill:none;stroke:#33658C;stroke-width:1.7946;stroke-miterlimit:10;}
</style>
<g id="automate_x60_51x47">
	
		<ellipse transform="matrix(0.847 -0.5315 0.5315 0.847 -10.0143 26.5044)" class="st0" cx="41.043" cy="30.652" rx="2.112" ry="2.113"/>
	
		<ellipse transform="matrix(0.8469 -0.5317 0.5317 0.8469 -14.7499 10.0697)" class="st0" cx="10.114" cy="30.652" rx="2.111" ry="2.113"/>
	<rect x="4.164" y="24.704" class="st0" width="42.828" height="20.802"/>
	<line class="st0" x1="10.051" y1="41.66" x2="40.764" y2="41.66"/>
	<line class="st0" x1="10.051" y1="37.698" x2="40.764" y2="37.698"/>
	<line class="st0" x1="50.096" y1="37.025" x2="50.096" y2="28.353"/>
	<line class="st0" x1="0.897" y1="37.025" x2="0.897" y2="28.353"/>
	<line class="st0" x1="25.657" y1="7.436" x2="25.657" y2="0"/>
	<line class="st0" x1="36.746" y1="9.749" x2="39.292" y2="3.91"/>
	<line class="st0" x1="14.568" y1="9.749" x2="12.021" y2="3.91"/>
	<polyline class="st0" points="8.526,24.6 8.526,19.186 11.92,19.186 11.92,16.478 17.857,16.553 	"/>
	<polyline class="st0" points="18.526,22.294 18.526,13.124 25.429,13.124 25.429,21.363 29.193,21.363 29.193,15.575 	"/>
	<line class="st0" x1="21.975" y1="15.686" x2="21.975" y2="24.695"/>
	<line class="st0" x1="11.92" y1="16.794" x2="11.92" y2="22.527"/>
	<line class="st0" x1="15.235" y1="19.391" x2="15.235" y2="24.249"/>
	<polyline class="st0" points="42.746,24.6 42.746,19.186 39.352,19.186 39.352,16.478 33.416,16.553 	"/>
	<polyline class="st0" points="32.746,22.294 32.746,13.124 25.429,13.124 	"/>
	<path class="st0" d="M30.947,24.799"/>
	<path class="st0" d="M31.947,17.186"/>
	<line class="st0" x1="39.352" y1="16.794" x2="39.352" y2="22.527"/>
	<line class="st0" x1="36.038" y1="19.391" x2="36.038" y2="24.249"/>
	<polyline class="st0" points="23.115,34.078 25.429,31.765 27.742,34.078 	"/>
	<g>
		<line class="st0" x1="10.945" y1="37.233" x2="10.945" y2="42.024"/>
		<line class="st0" x1="15.083" y1="37.233" x2="15.083" y2="42.024"/>
		<line class="st0" x1="19.221" y1="37.233" x2="19.221" y2="42.024"/>
		<line class="st0" x1="23.36" y1="37.233" x2="23.36" y2="42.024"/>
		<line class="st0" x1="27.498" y1="37.233" x2="27.498" y2="42.024"/>
		<line class="st0" x1="31.636" y1="37.233" x2="31.636" y2="42.024"/>
		<line class="st0" x1="35.774" y1="37.233" x2="35.774" y2="42.024"/>
		<line class="st0" x1="39.913" y1="37.233" x2="39.913" y2="42.024"/>
	</g>
</g>
</svg>
