<?xml version="1.0" encoding="iso-8859-1"?>
<!-- Generator: Adobe Illustrator 21.1.0, SVG Export Plug-In . SVG Version: 6.00 Build 0)  -->
<svg version="1.1" id="Layer_1" xmlns="http://www.w3.org/2000/svg" xmlns:xlink="http://www.w3.org/1999/xlink" x="0px" y="0px"
	 viewBox="0 0 40.409 43.127" style="enable-background:new 0 0 40.409 43.127;" xml:space="preserve">
<style type="text/css">
	.st0{fill:none;stroke:#33658C;stroke-width:1.7946;stroke-miterlimit:10;}
</style>
<g id="deploy_x60_41x44">
	<polyline class="st0" points="13.856,6.229 20.205,10.836 23.629,8.351 26.361,6.37 35.393,12.769 35.393,25.373 31.274,28.483 	
		"/>
	<polyline class="st0" points="5.016,23.155 5.016,12.835 10.842,8.482 	"/>
	<polyline class="st0" points="13.856,32.048 10.78,29.725 5.016,25.373 	"/>
	<polyline class="st0" points="27.04,31.681 20.204,36.842 16.231,33.842 	"/>
	<polygon class="st0" points="0.897,27.425 0.897,10.771 13.819,1.114 20.205,5.747 26.332,1.302 39.512,10.64 39.512,27.425 
		20.204,42.003 	"/>
	<polygon class="st0" points="20.205,15.925 26.389,11.438 31.274,14.899 31.274,23.322 20.205,31.681 9.135,23.322 9.135,14.899 
		13.892,11.344 	"/>
	<polyline class="st0" points="20.141,31.681 20.141,23.155 9.635,15.474 	"/>
	<polyline class="st0" points="25.37,27.893 25.37,19.367 13.845,11.267 	"/>
	<line class="st0" x1="20.141" y1="23.155" x2="31.274" y2="14.899"/>
</g>
</svg>
