<?xml version="1.0" encoding="iso-8859-1"?>
<!-- Generator: Adobe Illustrator 23.0.2, SVG Export Plug-In . SVG Version: 6.00 Build 0)  -->
<svg version="1.1" id="Layer_1" xmlns="http://www.w3.org/2000/svg" xmlns:xlink="http://www.w3.org/1999/xlink" x="0px" y="0px"
	 viewBox="0 0 160.25 44.014" style="enable-background:new 0 0 160.25 44.014;" xml:space="preserve">
<style type="text/css">
	.st0{fill:#1068FF;}
	.st1{fill:#C1CEE0;}
	.st2{fill-rule:evenodd;clip-rule:evenodd;fill:#C1CEE0;}
	.st3{fill:#D3DCE8;}
	.st4{fill:#BDC9DB;}
	.st5{fill:#DFE4ED;}
	.st6{fill:#D2D9E6;}
</style>
<g id="merge-logos_x60_161x48">
	<path class="st0" d="M87.971,30.394h-3.062v-7.146h-6.336v-2.781h6.336v-6.864h3.062v6.864h6.301v2.781h-6.301V30.394z"/>
	<path id="XMLID_123_" class="st1" d="M21.296,42.965l0-8.248c8.753,0,15.521-8.663,12.179-17.865
		c-1.238-3.408-3.956-6.127-7.365-7.363c-9.2-3.339-17.861,3.427-17.862,12.178l-0.002,0.002l-8.246,0
		C0,7.725,13.472-3.132,28.083,1.429c6.385,1.993,11.46,7.067,13.453,13.453C46.098,29.494,35.241,42.965,21.296,42.965z"/>
	<polygon id="XMLID_120_" class="st2" points="21.315,34.738 13.092,34.738 13.092,26.518 13.093,26.516 21.314,26.516 
		21.315,26.517 	"/>
	<polygon id="XMLID_119_" class="st2" points="13.09,41.057 6.774,41.057 6.773,41.055 6.773,34.738 13.092,34.738 13.092,41.055 	
		"/>
	<polygon id="XMLID_118_" class="st2" points="6.777,34.738 1.482,34.738 1.478,34.737 1.478,29.444 1.482,29.441 6.773,29.441 
		6.777,29.442 	"/>
	<polygon class="st3" points="160.25,35.514 147.447,42.112 134.34,35.396 147.143,28.797 	"/>
	<polygon class="st4" points="154.844,32.744 147.321,36.621 139.62,32.676 147.143,28.797 	"/>
	<polygon class="st5" points="154.221,31.552 147.579,34.976 140.936,31.552 147.579,28.129 	"/>
	<polygon class="st6" points="147.447,42.13 160.25,35.532 160.25,37.415 147.447,44.014 	"/>
	<polygon class="st4" points="147.447,42.13 134.34,35.396 134.34,37.28 147.447,44.014 	"/>
	<polygon class="st6" points="147.579,31.455 158.017,26.074 158.017,27.644 147.579,33.024 	"/>
	<polygon class="st4" points="147.579,31.455 137.14,26.074 137.14,27.644 147.579,33.024 	"/>
	<polygon class="st3" points="158.017,26.074 147.579,31.455 137.14,26.074 147.579,20.694 	"/>
	<polygon class="st4" points="155.264,24.662 147.579,28.623 139.893,24.662 147.579,20.701 	"/>
	<polygon class="st5" points="153.923,23.706 147.579,26.976 141.235,23.706 147.579,20.436 	"/>
	<polygon class="st6" points="147.579,23.089 160.226,16.573 160.226,18.472 147.579,24.991 	"/>
	<polygon class="st4" points="147.579,23.089 134.931,16.573 134.931,18.472 147.579,24.991 	"/>
	<polygon class="st3" points="160.226,16.573 147.579,23.089 134.931,16.573 147.579,10.052 	"/>
	<polygon class="st4" points="156.89,14.86 147.579,19.66 138.266,14.86 147.579,10.06 	"/>
	<polygon class="st5" points="154.359,13.411 147.579,16.906 140.798,13.411 147.579,9.917 	"/>
	<polygon class="st3" points="160.224,6.563 147.491,13.126 134.758,6.563 147.491,0 	"/>
	<polygon class="st6" points="147.491,13.126 160.224,6.563 160.224,8.479 147.491,15.041 	"/>
	<polygon class="st4" points="147.491,13.126 134.758,6.563 134.758,8.479 147.491,15.041 	"/>
</g>
</svg>
