<?xml version="1.0" encoding="iso-8859-1"?>
<!-- Generator: Adobe Illustrator 21.1.0, SVG Export Plug-In . SVG Version: 6.00 Build 0)  -->
<svg version="1.1" id="Layer_1" xmlns="http://www.w3.org/2000/svg" xmlns:xlink="http://www.w3.org/1999/xlink" x="0px" y="0px"
	 viewBox="0 0 53.499 50.157" style="enable-background:new 0 0 53.499 50.157;" xml:space="preserve">
<style type="text/css">
	.st0{fill:none;stroke:#33658C;stroke-width:1.7081;stroke-linecap:round;stroke-linejoin:round;stroke-miterlimit:10;}
	.st1{fill:none;stroke:#33658C;stroke-width:2;stroke-miterlimit:10;}
</style>
<g id="monitor_x60_54x51">
	<polyline class="st0" points="5.087,31.025 0.854,33.189 24.092,45.069 47.33,33.189 41.159,29.945 	"/>
	<polyline class="st0" points="0.854,37.424 24.092,49.303 47.33,37.424 	"/>
	<path class="st0" d="M53.499,32.618"/>
	<line class="st0" x1="15.229" y1="34.937" x2="10.31" y2="32.422"/>
	<polygon class="st0" points="10.31,20.371 15.229,17.856 20.147,20.371 15.229,22.885 	"/>
	<line class="st0" x1="15.229" y1="22.885" x2="15.229" y2="34.937"/>
	<line class="st0" x1="20.147" y1="20.371" x2="20.147" y2="27.093"/>
	<line class="st0" x1="10.31" y1="20.371" x2="10.31" y2="32.422"/>
	<polygon class="st0" points="19.609,15.342 24.528,12.827 29.446,15.342 24.528,17.856 	"/>
	<line class="st0" x1="24.528" y1="17.856" x2="24.528" y2="24.731"/>
	<line class="st0" x1="29.446" y1="15.342" x2="29.446" y2="22.389"/>
	<path class="st0" d="M17.097,12.875"/>
	<circle class="st0" cx="24.206" cy="34.265" r="5.16"/>
	<line class="st1" x1="40.754" y1="9.466" x2="40.754" y2="3.833"/>
	<line class="st1" x1="40.754" y1="14.075" x2="40.754" y2="12.126"/>
	<polygon class="st0" points="39.314,17.464 46.69,17.464 46.69,0.854 34.817,0.854 34.817,21 	"/>
	<path class="st0" d="M28.675,26.666c0.946-1.149,2.38-1.881,3.985-1.881c2.85,0,5.16,2.31,5.16,5.16s-2.31,5.16-5.16,5.16"/>
</g>
</svg>
