<?xml version="1.0" encoding="iso-8859-1"?>
<!-- Generator: Adobe Illustrator 23.0.2, SVG Export Plug-In . SVG Version: 6.00 Build 0)  -->
<svg version="1.1" id="Layer_1" xmlns="http://www.w3.org/2000/svg" xmlns:xlink="http://www.w3.org/1999/xlink" x="0px" y="0px"
	 viewBox="0 0 200 200" style="enable-background:new 0 0 200 200;" xml:space="preserve">
<style type="text/css">
	.st0{fill:none;stroke:#33658C;stroke-width:1.7946;stroke-miterlimit:10;}
	.st1{fill:none;stroke:#33658C;stroke-width:1.7081;stroke-linecap:round;stroke-linejoin:round;stroke-miterlimit:10;}
	.st2{fill:none;stroke:#33658C;stroke-width:2;stroke-miterlimit:10;}
	.st3{fill:#1068FF;}
	.st4{fill:#C1CEE0;}
	.st5{fill-rule:evenodd;clip-rule:evenodd;fill:#C1CEE0;}
	.st6{fill:#D3DCE8;}
	.st7{fill:#BDC9DB;}
	.st8{fill:#DFE4ED;}
	.st9{fill:#D2D9E6;}
</style>
<g id="protect_x60_63x41">
	<path class="st0" d="M40.067,23.022h-22.67c-1.919,0-3.482,1.563-3.482,3.482s1.563,3.482,3.482,3.482h22.67
		c1.919,0,3.482-1.563,3.482-3.482S42.057,23.022,40.067,23.022z"/>
	<path class="st0" d="M42.484,20.961c0,0,5.046-3.767,7.32-5.543c2.274-1.777,10.305-1.919,10.305-1.919L45.539,25.154"/>
	<line class="st0" x1="51.296" y1="17.053" x2="45.539" y2="21.53"/>
	<path class="st0" d="M27.275,31.834c0,0,1.137,2.203,3.127,1.208"/>
	<path class="st0" d="M25.869,35.362c0,0,1.137,2.203,3.127,1.208"/>
	<path class="st0" d="M24.275,38.52c0,0,1.137,2.203,3.127,1.208"/>
	<line class="st0" x1="21.235" y1="32.119" x2="16.047" y2="36.809"/>
	<line class="st0" x1="24.859" y1="32.19" x2="18.534" y2="37.662"/>
	<polyline class="st0" points="40.352,18.758 27.204,5.256 26.778,7.53 26.423,9.875 28.412,10.159 	"/>
	<line class="st0" x1="29.478" y1="11.581" x2="29.194" y2="13.286"/>
	<line class="st0" x1="31.113" y1="13.855" x2="30.9" y2="15.489"/>
	<line class="st0" x1="32.89" y1="16.058" x2="32.605" y2="17.763"/>
	<line class="st0" x1="34.595" y1="18.332" x2="34.311" y2="19.966"/>
	<polyline class="st0" points="37.722,13.215 41.204,3.337 45.397,1.489 42.91,16.626 	"/>
	<polyline class="st0" points="12.28,23.946 1.762,4.829 6.24,5.895 14.554,15.276 	"/>
	<line class="st0" x1="7.59" y1="10.799" x2="13.986" y2="20.819"/>
	<line class="st0" x1="36.443" y1="24.586" x2="36.443" y2="28.352"/>
	<line class="st0" x1="38.291" y1="26.433" x2="34.595" y2="26.433"/>
	<line class="st0" x1="34.879" y1="31.479" x2="40.281" y2="38.87"/>
	<polyline class="st0" points="16.118,21.103 16.829,16.413 21.377,12.931 22.585,14.779 20.311,17.692 21.732,21.459 	"/>
	<polyline class="st0" points="23.082,18.616 26.494,16.839 27.915,18.403 25.499,21.032 	"/>
</g>
<g id="automate_x60_51x47">
	<path class="st0" d="M42.832,29.529c-0.618-0.987-1.925-1.286-2.911-0.667c-0.989,0.622-1.285,1.925-0.666,2.912
		c0.62,0.99,1.924,1.288,2.913,0.667C43.153,31.823,43.452,30.517,42.832,29.529z"/>
	<path class="st0" d="M11.901,29.529c-0.618-0.987-1.924-1.286-2.911-0.667c-0.987,0.622-1.285,1.925-0.665,2.912
		c0.62,0.99,1.924,1.288,2.913,0.667C12.224,31.823,12.523,30.517,11.901,29.529z"/>
	<rect x="4.164" y="24.704" class="st0" width="42.828" height="20.802"/>
	<line class="st0" x1="10.051" y1="41.66" x2="40.764" y2="41.66"/>
	<line class="st0" x1="10.051" y1="37.698" x2="40.764" y2="37.698"/>
	<line class="st0" x1="50.096" y1="37.025" x2="50.096" y2="28.353"/>
	<line class="st0" x1="0.897" y1="37.025" x2="0.897" y2="28.353"/>
	<line class="st0" x1="25.657" y1="7.436" x2="25.657" y2="0"/>
	<line class="st0" x1="36.746" y1="9.749" x2="39.292" y2="3.91"/>
	<line class="st0" x1="14.568" y1="9.749" x2="12.021" y2="3.91"/>
	<polyline class="st0" points="8.526,24.6 8.526,19.186 11.92,19.186 11.92,16.478 17.857,16.553 	"/>
	<polyline class="st0" points="18.526,22.294 18.526,13.124 25.429,13.124 25.429,21.363 29.193,21.363 29.193,15.575 	"/>
	<line class="st0" x1="21.975" y1="15.686" x2="21.975" y2="24.695"/>
	<line class="st0" x1="11.92" y1="16.794" x2="11.92" y2="22.527"/>
	<line class="st0" x1="15.235" y1="19.391" x2="15.235" y2="24.249"/>
	<polyline class="st0" points="42.746,24.6 42.746,19.186 39.352,19.186 39.352,16.478 33.416,16.553 	"/>
	<polyline class="st0" points="32.746,22.294 32.746,13.124 25.429,13.124 	"/>
	<path class="st0" d="M30.947,24.799"/>
	<path class="st0" d="M31.947,17.186"/>
	<line class="st0" x1="39.352" y1="16.794" x2="39.352" y2="22.527"/>
	<line class="st0" x1="36.038" y1="19.391" x2="36.038" y2="24.249"/>
	<polyline class="st0" points="23.115,34.078 25.429,31.765 27.742,34.078 	"/>
	<g>
		<line class="st0" x1="10.945" y1="37.233" x2="10.945" y2="42.024"/>
		<line class="st0" x1="15.083" y1="37.233" x2="15.083" y2="42.024"/>
		<line class="st0" x1="19.221" y1="37.233" x2="19.221" y2="42.024"/>
		<line class="st0" x1="23.36" y1="37.233" x2="23.36" y2="42.024"/>
		<line class="st0" x1="27.498" y1="37.233" x2="27.498" y2="42.024"/>
		<line class="st0" x1="31.636" y1="37.233" x2="31.636" y2="42.024"/>
		<line class="st0" x1="35.774" y1="37.233" x2="35.774" y2="42.024"/>
		<line class="st0" x1="39.913" y1="37.233" x2="39.913" y2="42.024"/>
	</g>
</g>
<g id="monitor_x60_54x51">
	<polyline class="st1" points="5.087,31.025 0.854,33.189 24.092,45.069 47.33,33.189 41.159,29.945 	"/>
	<polyline class="st1" points="0.854,37.424 24.092,49.303 47.33,37.424 	"/>
	<path class="st1" d="M53.499,32.618"/>
	<line class="st1" x1="15.229" y1="34.937" x2="10.31" y2="32.422"/>
	<polygon class="st1" points="10.31,20.371 15.229,17.856 20.147,20.371 15.229,22.885 	"/>
	<line class="st1" x1="15.229" y1="22.885" x2="15.229" y2="34.937"/>
	<line class="st1" x1="20.147" y1="20.371" x2="20.147" y2="27.093"/>
	<line class="st1" x1="10.31" y1="20.371" x2="10.31" y2="32.422"/>
	<polygon class="st1" points="19.609,15.342 24.528,12.827 29.446,15.342 24.528,17.856 	"/>
	<line class="st1" x1="24.528" y1="17.856" x2="24.528" y2="24.731"/>
	<line class="st1" x1="29.446" y1="15.342" x2="29.446" y2="22.389"/>
	<path class="st1" d="M17.097,12.875"/>
	<circle class="st1" cx="24.206" cy="34.265" r="5.16"/>
	<line class="st2" x1="40.754" y1="9.466" x2="40.754" y2="3.833"/>
	<line class="st2" x1="40.754" y1="14.075" x2="40.754" y2="12.126"/>
	<polygon class="st1" points="39.314,17.464 46.69,17.464 46.69,0.854 34.817,0.854 34.817,21 	"/>
	<path class="st1" d="M28.675,26.666c0.946-1.149,2.38-1.881,3.985-1.881c2.85,0,5.16,2.31,5.16,5.16s-2.31,5.16-5.16,5.16"/>
</g>
<g id="scale_x60_59x44">
	<polyline class="st0" points="37.774,18.179 41.957,22.256 33.083,30.905 29.396,34.499 25.541,30.743 20.274,25.61 16.833,22.256 
		21.014,18.182 	"/>
	<polygon class="st0" points="29.396,15.33 24.29,10.354 29.396,5.375 34.502,10.354 	"/>
	<line class="st0" x1="39.698" y1="24.974" x2="19.85" y2="24.974"/>
	<polyline class="st0" points="17.991,23.815 9.664,27.551 5.236,42.107 10.242,42.107 16.833,32.96 26.651,31.823 	"/>
	<polyline class="st0" points="40.801,23.815 49.126,27.551 53.558,42.107 48.55,42.107 41.957,32.96 32.136,31.83 	"/>
	<line class="st0" x1="29.396" y1="0" x2="29.396" y2="2.79"/>
	<polyline class="st0" points="33.897,10.943 44.889,7.986 57.184,14.136 54.981,16.028 42.279,13.793 33.655,22.198 31.118,19.725 
			"/>
	<polyline class="st0" points="24.895,10.944 13.901,7.986 1.608,14.136 3.809,16.028 16.511,13.793 25.136,22.198 27.674,19.725 	
		"/>
	<line class="st0" x1="27.565" y1="7.58" x2="31.374" y2="7.58"/>
	<line class="st0" x1="26.73" y1="8.366" x2="32.21" y2="8.366"/>
	<path class="st0" d="M8.797,36.915"/>
	<line class="st0" x1="8.797" y1="36.915" x2="10.728" y2="36.915"/>
	<line class="st0" x1="10.046" y1="33.72" x2="13.166" y2="33.72"/>
	<line class="st0" x1="11.292" y1="30.527" x2="14.641" y2="30.527"/>
	<line class="st0" x1="49.995" y1="36.915" x2="48.062" y2="36.915"/>
	<line class="st0" x1="48.747" y1="33.72" x2="45.626" y2="33.72"/>
	<line class="st0" x1="47.498" y1="30.527" x2="44.151" y2="30.527"/>
	<line class="st0" x1="25.541" y1="8.902" x2="33.401" y2="8.902"/>
	<line class="st0" x1="28.438" y1="24.986" x2="27.944" y2="29.948"/>
	<line class="st0" x1="30.881" y1="24.986" x2="31.375" y2="29.948"/>
</g>
<g id="deploy_x60_41x44">
	<polyline class="st0" points="13.856,6.229 20.205,10.836 23.629,8.351 26.361,6.37 35.393,12.769 35.393,25.373 31.274,28.483 	
		"/>
	<polyline class="st0" points="5.016,23.155 5.016,12.835 10.842,8.482 	"/>
	<polyline class="st0" points="13.856,32.048 10.78,29.725 5.016,25.373 	"/>
	<polyline class="st0" points="27.04,31.681 20.204,36.842 16.231,33.842 	"/>
	<polygon class="st0" points="0.897,27.425 0.897,10.771 13.819,1.114 20.205,5.747 26.332,1.302 39.512,10.64 39.512,27.425 
		20.204,42.003 	"/>
	<polygon class="st0" points="20.205,15.925 26.389,11.438 31.274,14.899 31.274,23.322 20.205,31.681 9.135,23.322 9.135,14.899 
		13.892,11.344 	"/>
	<polyline class="st0" points="20.141,31.681 20.141,23.155 9.635,15.474 	"/>
	<polyline class="st0" points="25.37,27.893 25.37,19.367 13.845,11.267 	"/>
	<line class="st0" x1="20.141" y1="23.155" x2="31.274" y2="14.899"/>
</g>
<g id="merge-logos_x60_161x48">
	<path class="st3" d="M87.971,30.394h-3.062v-7.146h-6.336v-2.781h6.336v-6.864h3.062v6.864h6.301v2.781h-6.301V30.394z"/>
	<path id="XMLID_123_" class="st4" d="M21.296,42.965l0-8.248c8.753,0,15.521-8.663,12.179-17.865
		c-1.238-3.408-3.956-6.127-7.365-7.363c-9.2-3.339-17.861,3.427-17.862,12.178l-0.002,0.002l-8.246,0
		C0,7.725,13.472-3.132,28.083,1.429c6.385,1.993,11.46,7.067,13.453,13.453C46.098,29.494,35.241,42.965,21.296,42.965z"/>
	<polygon id="XMLID_120_" class="st5" points="21.315,34.738 13.092,34.738 13.092,26.518 13.093,26.516 21.314,26.516 
		21.315,26.517 	"/>
	<polygon id="XMLID_119_" class="st5" points="13.09,41.057 6.774,41.057 6.773,41.055 6.773,34.738 13.092,34.738 13.092,41.055 	
		"/>
	<polygon id="XMLID_118_" class="st5" points="6.777,34.738 1.482,34.738 1.478,34.737 1.478,29.444 1.482,29.441 6.773,29.441 
		6.777,29.442 	"/>
	<polygon class="st6" points="160.25,35.514 147.447,42.112 134.34,35.396 147.143,28.797 	"/>
	<polygon class="st7" points="154.844,32.744 147.321,36.621 139.62,32.676 147.143,28.797 	"/>
	<polygon class="st8" points="154.221,31.552 147.579,34.976 140.936,31.552 147.579,28.129 	"/>
	<polygon class="st9" points="147.447,42.13 160.25,35.532 160.25,37.415 147.447,44.014 	"/>
	<polygon class="st7" points="147.447,42.13 134.34,35.396 134.34,37.28 147.447,44.014 	"/>
	<polygon class="st9" points="147.579,31.455 158.017,26.074 158.017,27.644 147.579,33.024 	"/>
	<polygon class="st7" points="147.579,31.455 137.14,26.074 137.14,27.644 147.579,33.024 	"/>
	<polygon class="st6" points="158.017,26.074 147.579,31.455 137.14,26.074 147.579,20.694 	"/>
	<polygon class="st7" points="155.264,24.662 147.579,28.623 139.893,24.662 147.579,20.701 	"/>
	<polygon class="st8" points="153.923,23.706 147.579,26.976 141.235,23.706 147.579,20.436 	"/>
	<polygon class="st9" points="147.579,23.089 160.226,16.573 160.226,18.472 147.579,24.991 	"/>
	<polygon class="st7" points="147.579,23.089 134.931,16.573 134.931,18.472 147.579,24.991 	"/>
	<polygon class="st6" points="160.226,16.573 147.579,23.089 134.931,16.573 147.579,10.052 	"/>
	<polygon class="st7" points="156.89,14.86 147.579,19.66 138.266,14.86 147.579,10.06 	"/>
	<polygon class="st8" points="154.359,13.411 147.579,16.906 140.798,13.411 147.579,9.917 	"/>
	<polygon class="st6" points="160.224,6.563 147.491,13.126 134.758,6.563 147.491,0 	"/>
	<polygon class="st9" points="147.491,13.126 160.224,6.563 160.224,8.479 147.491,15.041 	"/>
	<polygon class="st7" points="147.491,13.126 134.758,6.563 134.758,8.479 147.491,15.041 	"/>
</g>
</svg>
