<?xml version="1.0" encoding="iso-8859-1"?>
<!-- Generator: Adobe Illustrator 21.1.0, SVG Export Plug-In . SVG Version: 6.00 Build 0)  -->
<svg version="1.1" id="Layer_1" xmlns="http://www.w3.org/2000/svg" xmlns:xlink="http://www.w3.org/1999/xlink" x="0px" y="0px"
	 viewBox="0 0 58.793 43.004" style="enable-background:new 0 0 58.793 43.004;" xml:space="preserve">
<g id="scale_x60_59x44">
	<polyline style="fill:none;stroke:#33658C;stroke-width:1.7946;stroke-miterlimit:10;" points="37.774,18.179 41.957,22.256 
		33.083,30.905 29.396,34.499 25.541,30.743 20.274,25.61 16.833,22.256 21.014,18.182 	"/>
	<polygon style="fill:none;stroke:#33658C;stroke-width:1.7946;stroke-miterlimit:10;" points="29.396,15.33 24.29,10.354 
		29.396,5.375 34.502,10.354 	"/>
	
		<line style="fill:none;stroke:#33658C;stroke-width:1.7946;stroke-miterlimit:10;" x1="39.698" y1="24.974" x2="19.85" y2="24.974"/>
	<polyline style="fill:none;stroke:#33658C;stroke-width:1.7946;stroke-miterlimit:10;" points="17.991,23.815 9.664,27.551 
		5.236,42.107 10.242,42.107 16.833,32.96 26.651,31.823 	"/>
	<polyline style="fill:none;stroke:#33658C;stroke-width:1.7946;stroke-miterlimit:10;" points="40.801,23.815 49.126,27.551 
		53.558,42.107 48.55,42.107 41.957,32.96 32.136,31.83 	"/>
	<line style="fill:none;stroke:#33658C;stroke-width:1.7946;stroke-miterlimit:10;" x1="29.396" y1="0" x2="29.396" y2="2.79"/>
	<polyline style="fill:none;stroke:#33658C;stroke-width:1.7946;stroke-miterlimit:10;" points="33.897,10.943 44.889,7.986 
		57.184,14.136 54.981,16.028 42.279,13.793 33.655,22.198 31.118,19.725 	"/>
	<polyline style="fill:none;stroke:#33658C;stroke-width:1.7946;stroke-miterlimit:10;" points="24.895,10.944 13.901,7.986 
		1.608,14.136 3.809,16.028 16.511,13.793 25.136,22.198 27.674,19.725 	"/>
	<line style="fill:none;stroke:#33658C;stroke-width:1.7946;stroke-miterlimit:10;" x1="27.565" y1="7.58" x2="31.374" y2="7.58"/>
	<line style="fill:none;stroke:#33658C;stroke-width:1.7946;stroke-miterlimit:10;" x1="26.73" y1="8.366" x2="32.21" y2="8.366"/>
	<path style="fill:none;stroke:#33658C;stroke-width:1.7946;stroke-miterlimit:10;" d="M8.797,36.915"/>
	
		<line style="fill:none;stroke:#33658C;stroke-width:1.7946;stroke-miterlimit:10;" x1="8.797" y1="36.915" x2="10.728" y2="36.915"/>
	
		<line style="fill:none;stroke:#33658C;stroke-width:1.7946;stroke-miterlimit:10;" x1="10.046" y1="33.72" x2="13.166" y2="33.72"/>
	
		<line style="fill:none;stroke:#33658C;stroke-width:1.7946;stroke-miterlimit:10;" x1="11.292" y1="30.527" x2="14.641" y2="30.527"/>
	
		<line style="fill:none;stroke:#33658C;stroke-width:1.7946;stroke-miterlimit:10;" x1="49.995" y1="36.915" x2="48.062" y2="36.915"/>
	
		<line style="fill:none;stroke:#33658C;stroke-width:1.7946;stroke-miterlimit:10;" x1="48.747" y1="33.72" x2="45.626" y2="33.72"/>
	
		<line style="fill:none;stroke:#33658C;stroke-width:1.7946;stroke-miterlimit:10;" x1="47.498" y1="30.527" x2="44.151" y2="30.527"/>
	
		<line style="fill:none;stroke:#33658C;stroke-width:1.7946;stroke-miterlimit:10;" x1="25.541" y1="8.902" x2="33.401" y2="8.902"/>
	
		<line style="fill:none;stroke:#33658C;stroke-width:1.7946;stroke-miterlimit:10;" x1="28.438" y1="24.986" x2="27.944" y2="29.948"/>
	
		<line style="fill:none;stroke:#33658C;stroke-width:1.7946;stroke-miterlimit:10;" x1="30.881" y1="24.986" x2="31.375" y2="29.948"/>
</g>
</svg>
