<?xml version="1.0" encoding="iso-8859-1"?>
<!-- Generator: Adobe Illustrator 21.1.0, SVG Export Plug-In . SVG Version: 6.00 Build 0)  -->
<svg version="1.1" id="Layer_1" xmlns="http://www.w3.org/2000/svg" xmlns:xlink="http://www.w3.org/1999/xlink" x="0px" y="0px"
	 viewBox="0 0 17.019 12.809" style="enable-background:new 0 0 17.019 12.809;" xml:space="preserve">
<g>
	<path style="fill:#2BB8FF;" d="M6.455,12.809c-0.308,0-0.588-0.06-0.842-0.181c-0.254-0.12-0.495-0.28-0.722-0.48l-4.25-4.271
		C0.427,7.665,0.267,7.42,0.16,7.146S0,6.595,0,6.314S0.053,5.76,0.16,5.493c0.107-0.267,0.267-0.501,0.481-0.702
		C0.855,4.578,1.099,4.414,1.373,4.3c0.274-0.113,0.551-0.17,0.832-0.17S2.759,4.187,3.027,4.3c0.267,0.114,0.508,0.278,0.722,0.491
		l2.706,2.706l6.836-6.855c0.213-0.214,0.454-0.374,0.722-0.481C14.279,0.054,14.557,0,14.845,0c0.287,0,0.564,0.054,0.831,0.16
		c0.268,0.107,0.508,0.268,0.722,0.481s0.371,0.455,0.471,0.722c0.101,0.268,0.15,0.544,0.15,0.832c0,0.288-0.05,0.565-0.15,0.832
		c-0.1,0.268-0.257,0.508-0.471,0.722l-8.399,8.399c-0.201,0.2-0.431,0.36-0.692,0.48C7.046,12.75,6.762,12.809,6.455,12.809z"/>
</g>
</svg>
